<?xml version="1.0" encoding="UTF-8"?>
<svg id="Vrstva_1" data-name="Vrstva 1" xmlns="http://www.w3.org/2000/svg" viewBox="0 0 450.89 159.14">
  <defs>
    <style>
      .cls-1 {
        fill: #fff;
      }
    </style>
  </defs>
  <path class="cls-1" d="m0,159.14C0,106.09,0,53.05,0,0c150.3,0,300.59,0,450.89,0,0,53.05,0,106.09,0,159.14-150.3,0-300.59,0-450.89,0ZM99.13,63.53c0,11.41,0,22.68,0,34.08,0,5.1,0,5.02,5.12,5.02,1.96,0,2.47-.66,2.47-2.55-.07-19.93-.04-39.78-.04-59.72h-7.52v16.11c-28.98-1.7-25.96,7.44-25.85-16.12h-7.16c-.01,19.12-.04,38.21-.06,57.32,0,4.99,0,4.9,4.92,4.98,2.02.03,2.44-.72,2.42-2.57-.07-11.65-.02-23.31-.06-34.96-.95-3.49,21.74-.77,25.75-1.58Zm67.33,2.92c16.13-1.81,35.76,7.71,32.55-16.64.17-6.73-4.19-9.73-10.6-9.59-9.7.07-19.44-.16-29.13.1-.51,19.03.07,38.18-.09,57.25,0,5.12-.02,5.05,5.07,5.05,1.77,0,2.26-.61,2.24-2.3-.1-11.41,0-22.35-.03-33.87Zm112.31-26.18c0,11.52,0,22.87,0,34.37,0,5.23-.01,5.17,5.3,5,3.64-.19,1.02-10.25,1.77-13.24,4.52,0,8.69-.04,12.87.05,6.96,4.07,9.78,16.88,20.3,12.43-3.46-4.1-6.84-8.1-10.34-12.25,9.63-.29,10.64-8.22,10.08-16.03.39-7.01-4.05-10.33-10.41-10.33-9.99,0-19.4,0-29.57,0Zm102.16,19.83h-.02c.08-3.78-.13-7.58-.04-11.36-.08-13.76-22.09-7.08-31.03-8.41-13.97.1-6.91,22.78-8.32,31.95.39,12.27,22.89,5.81,31.27,7.24,10.72.09,7.79-12.24,8.14-19.43Zm30.5-8.8c.22-.17.44-.35.66-.52,6.94,9.47,15.22,18.1,22.67,27.24,2.17,2.67,5.82,1.16,8.9,1.5v-39.13h-6.91v29.29c-7.69-8.64-14.92-17.25-22.11-26.25-3.07-3.93-6.71-3.14-10.68-3.04,0,11.32,0,22.56-.01,33.87,0,5.46-.01,5.39,5.44,5.34,4.35,1.88,1.14-24.44,2.05-28.31ZM10.76,72.52c.53-34.45-5.99-23.48,27.12-25.11,5.26.01,5.21,0,5.05-5.23,1.58-4.17-26.22-1.08-30.23-1.94-14.78.29-7.23,20.87-8.94,30.39.03,6.25,2.47,8.85,8.73,8.94,8.66.12,17.31.14,25.97.06,5.04-.04,4.51,1.17,4.63-4.66.04-1.96-.68-2.41-2.57-2.39-9.94.03-19.83.2-29.77-.06Zm223.54-25.05v32.09h6.93c.3-9.92.08-19.79.04-29.72-.68-4.36,11.21-1.46,14.24-2.22,3.55.02,1.18-5.05,1.58-7.27h-38.95c.58,2.46-1.68,7.45,2.32,7.16,4.52-.13,9.05-.04,13.83-.04Zm-103.98-7.17c-.32,20.17.16,40.29-.29,60.46.62,3.27,4.69,1.46,7.18,1.87v-62.33h-6.89Zm-27.23,76.71c4.32-.41,4.67-6.46.04-6.91-4.99.26-4.74,6.35-.04,6.91Zm30.62-6.94c-4.81-.28-4.37,6.84-.13,6.81,4.91-.01,4.76-6.62.13-6.81Zm-63.89.01c-4.78-.22-4.41,6.77-.12,6.89,4.45-.09,4.78-6.78.12-6.89Zm93.24,6.9c4.36-.25,4.52-7.01-.18-6.87-4.73.1-4.16,6.83.18,6.87Z"/>
  <path d="m99.13,63.53c-8.35,0-16.34.01-24.32-.02-1.21,0-1.43.5-1.43,1.6.04,11.65-.02,23.31.06,34.96.01,1.85-.4,2.61-2.42,2.57-4.93-.08-4.93.01-4.92-4.98.02-18.29.04-36.57.06-54.86,0-.78,0-1.57,0-2.47h7.16c0,4.54.15,9.03-.07,13.5-.1,2.14.4,2.75,2.58,2.7,6.38-.15,12.77-.07,19.15-.08,1.3,0,2.61,0,4.18,0v-16.11h7.52c0,2.22,0,4.31,0,6.41,0,17.77-.02,35.54.04,53.32,0,1.89-.5,2.55-2.47,2.55-5.12,0-5.12.08-5.12-5.02,0-10.42,0-20.83,0-31.25,0-.86,0-1.73,0-2.82Z"/>
  <path d="m166.47,66.45c0,4.84,0,9.41,0,13.98,0,6.63-.05,13.26.03,19.89.02,1.69-.47,2.3-2.24,2.3-5.09,0-5.06.07-5.07-5.05-.02-18.8-.07-37.59-.1-56.39,0-.21.09-.42.19-.86.73-.03,1.5-.1,2.28-.1,8.95,0,17.91,0,26.86,0,.66,0,1.33-.02,1.98.06,5.98.72,8.53,3.52,8.62,9.52.04,2.77.05,5.54,0,8.31-.1,4.86-3.69,8.33-8.58,8.33-7.85,0-15.69,0-23.97,0Zm25.29-18.91c-8.19,0-15.93.01-23.68-.01-1.09,0-1.61.36-1.59,1.51.05,2.83-.04,5.67.09,8.5.02.52.81,1.44,1.25,1.45,7.54.11,15.08.12,22.62.06.44,0,1.24-.79,1.25-1.23.11-3.32.06-6.65.06-10.27Z"/>
  <path d="m278.77,40.28c5.82,0,11.31,0,16.8,0,4.26,0,8.51,0,12.77,0,6.37,0,10.8,3.32,10.41,10.33-.12,2.11-.02,4.22-.02,6.34,0,5.43-3.56,9.15-9.04,9.48-.21.01-.42.09-1.02.21,3.5,4.15,6.88,8.15,10.34,12.25-4.31,1.66-8.2.79-10.76-2.19-2.61-3.05-5.17-6.15-7.8-9.18-.43-.5-1.15-1.04-1.74-1.06-4.17-.09-8.35-.05-12.87-.05,0,1.42,0,2.7,0,3.97,0,2.48-.01,4.95,0,7.43,0,1.2-.35,1.79-1.77,1.84-5.32.17-5.3.23-5.3-5,0-10.56,0-21.12,0-31.69,0-.79,0-1.58,0-2.68Zm19.99,7.32h0c-3.74.01-7.47.05-11.21,0-1.3-.02-1.85.35-1.79,1.75.12,2.61.13,5.24.06,7.85-.04,1.41.43,1.92,1.89,1.91,7.25-.04,14.5-.04,21.76.03,1.51.02,1.89-.55,1.86-1.91-.07-2.54-.1-5.09,0-7.64.06-1.52-.46-2.06-2.01-2.02-3.51.09-7.03.03-10.55.03Z"/>
  <path d="m380.94,60.11c0,3.71.04,7.43,0,11.14-.07,5.19-2.9,8.21-8.13,8.29-7.92.12-15.84.1-23.75-.02-4.41-.07-7.4-2.84-7.51-7.22-.2-8.15-.21-16.3-.07-24.45.08-4.4,3.42-7.38,8.39-7.5,7.62-.17,15.26-.22,22.88,0,4.7.14,8.46,3.37,8.15,8.4-.11,1.88.03,3.78.04,5.68.01,1.89,0,3.79,0,5.68h.02Zm-7.57-12.46h-24.53v25.06h24.53v-25.06Z"/>
  <path d="m411.43,51.31c0,2.74,0,5.49,0,8.23.02,5.97,0,11.94.09,17.91.02,1.59-.48,2.15-2.14,2.16-5.45.06-5.45.12-5.44-5.34,0-10.78.01-21.56.01-32.34,0-.43,0-.85,0-1.53,3.98-.1,7.61-.89,10.68,3.04,6.48,8.27,13.44,16.17,20.21,24.21.46.54.97,1.04,1.89,2.03v-29.29h6.91v39.13c-2.37,0-4.63.12-6.86-.07-.72-.06-1.51-.81-2.04-1.44-7.34-8.62-14.64-17.27-21.94-25.92-.32-.38-.49-.88-.73-1.32-.22.17-.44.35-.66.52Z"/>
  <path d="m10.76,72.52c.84.04,1.55.1,2.26.1,9.17,0,18.34.06,27.51-.04,1.89-.02,2.61.43,2.57,2.39-.13,5.83.4,4.61-4.63,4.66-8.66.08-17.31.06-25.97-.06-6.26-.09-8.71-2.69-8.73-8.94-.03-7.14-.05-14.27-.04-21.41,0-5.81,3.05-8.93,8.97-8.98,9.39-.07,18.78.01,28.17-.05,1.54-.01,2.01.49,2.06,1.99.16,5.23.21,5.24-5.05,5.23-8.36-.02-16.73-.04-25.09-.12-1.27-.01-2.07.06-2.06,1.68.06,7.78.03,15.56.03,23.54Z"/>
  <path d="m234.3,47.46c-4.78,0-9.31-.09-13.83.04-1.87.05-2.5-.54-2.35-2.36.13-1.57.03-3.16.03-4.8h38.95c.11,1.87.21,3.72.32,5.57.07,1.34-.6,1.72-1.89,1.7-3.96-.07-7.92.05-11.88-.06-1.75-.05-2.39.33-2.36,2.27.13,9.39.07,18.79.07,28.19,0,.43-.06.86-.12,1.53h-6.93v-32.09Z"/>
  <path d="m130.32,40.3h6.89v62.33c-2.12,0-4.09.12-6.02-.09-.47-.05-1.16-1.16-1.17-1.79-.02-4.22.19-8.44.2-12.66.02-15.14,0-30.28,0-45.42,0-.72.06-1.44.1-2.38Z"/>
  <path d="m103.09,117.01c-1.72-.03-3.85-2.1-3.78-3.66.08-1.64,2.01-3.28,3.81-3.25,1.72.03,3.6,1.92,3.5,3.53-.1,1.55-2.04,3.41-3.53,3.38Z"/>
  <path d="m133.71,110.07c1.85,0,3.71,1.83,3.66,3.6-.04,1.66-1.89,3.23-3.8,3.21-1.88-.02-3.35-1.56-3.39-3.55-.04-1.97,1.35-3.26,3.52-3.26Z"/>
  <path d="m69.82,110.09c1.89.03,3.52,1.64,3.49,3.44-.03,1.74-1.82,3.46-3.61,3.45-1.75,0-3.45-1.77-3.45-3.58,0-1.93,1.52-3.34,3.57-3.31Z"/>
  <path d="m163.05,116.98c-1.82.04-3.66-1.8-3.63-3.64.03-1.71,1.61-3.2,3.44-3.23,1.96-.04,3.56,1.42,3.61,3.27.05,1.73-1.7,3.56-3.43,3.59Z"/>
  <path class="cls-1" d="m191.76,47.54c0,3.62.05,6.95-.06,10.27-.01.44-.81,1.23-1.25,1.23-7.54.06-15.08.05-22.62-.06-.44,0-1.22-.93-1.25-1.45-.13-2.83-.04-5.67-.09-8.5-.02-1.15.5-1.51,1.59-1.51,7.75.02,15.49.01,23.68.01Z"/>
  <path class="cls-1" d="m298.77,47.59c3.52,0,7.03.06,10.55-.03,1.55-.04,2.07.5,2.01,2.02-.09,2.54-.07,5.09,0,7.64.04,1.36-.35,1.93-1.86,1.91-7.25-.08-14.5-.08-21.76-.03-1.45,0-1.92-.5-1.89-1.91.07-2.62.06-5.24-.06-7.85-.06-1.39.49-1.77,1.79-1.75,3.74.05,7.47.02,11.21.02h0Z"/>
  <path class="cls-1" d="m373.36,47.65v25.06h-24.53v-25.06h24.53Z"/>
</svg>